<svg version="1.1" id="Layer_1" xmlns="http://www.w3.org/2000/svg" xmlns:xlink="http://www.w3.org/1999/xlink" x="0px" y="0px"
	 width="100%" viewBox="0 0 691 194" enable-background="new 0 0 691 194" xml:space="preserve">
<path fill="#FEFEFE" opacity="1.000000" stroke="none" 
	d="
M498.000000,195.000000 
	C332.046722,195.000000 166.593430,195.000000 1.070078,195.000000 
	C1.070078,130.398376 1.070078,65.796646 1.070078,1.097460 
	C231.333313,1.097460 461.666656,1.097460 691.972412,1.097460 
	C691.972412,65.739922 691.972412,130.369965 691.972412,195.000000 
	C627.463257,195.000000 562.981628,195.000000 498.000000,195.000000 
M88.185425,27.600243 
	C83.059273,30.910788 77.353249,33.592873 72.934479,37.670059 
	C65.093994,44.904446 65.115280,54.190163 72.560120,61.887753 
	C75.619720,65.051224 79.367920,67.878883 83.318970,69.795311 
	C105.552727,80.579605 128.871643,81.542168 152.360352,75.353882 
	C160.352783,73.248207 168.335403,69.410942 175.071228,64.609520 
	C186.431396,56.511772 186.309250,43.825672 175.256638,35.301376 
	C170.227051,31.422327 164.311554,28.188557 158.290939,26.187103 
	C135.125931,18.486282 111.886948,19.031256 88.185425,27.600243 
M112.921638,97.791901 
	C96.778603,96.151306 81.448761,91.843346 67.119888,83.109268 
	C67.119888,86.191055 67.368851,88.550163 67.079300,90.841209 
	C65.259727,105.238152 72.857056,113.597580 84.939438,119.248810 
	C102.400223,127.415642 120.814087,128.504395 139.575531,126.493141 
	C150.217667,125.352287 160.459549,122.538300 169.762222,117.018028 
	C176.040970,113.292175 181.915741,108.818344 182.960297,101.080933 
	C183.724579,95.419830 183.109985,89.572578 183.109985,83.746094 
	C150.626663,97.462921 141.978470,99.220482 112.921638,97.791901 
M181.339432,132.652664 
	C143.297318,152.869583 105.320915,151.014282 67.119255,132.308380 
	C67.119255,135.937637 67.321205,139.578384 67.079353,143.189438 
	C66.481636,152.113968 70.496605,158.589600 77.646980,163.305618 
	C80.953110,165.486160 84.463219,167.487274 88.120766,168.983093 
	C105.689346,176.167938 123.952583,177.213196 142.528748,174.452820 
	C153.983688,172.750641 164.921143,169.449158 174.307739,162.327835 
	C182.705948,155.956375 186.591354,142.020416 182.878387,132.213303 
	C182.839676,132.111099 182.291916,132.201630 181.339432,132.652664 
M605.477661,123.098869 
	C607.742859,124.431961 609.857910,126.230682 612.299133,127.017632 
	C622.926208,130.443253 632.878967,124.734528 636.291016,113.533112 
	C640.533508,99.605507 634.957703,85.377853 623.930847,81.998268 
	C623.772339,81.949692 623.601318,81.942337 623.441772,81.896339 
	C615.939575,79.733513 609.468628,81.709747 603.198486,87.874634 
	C603.198486,80.045006 603.244873,73.286644 603.179626,66.529366 
	C603.145081,62.953209 600.787537,61.483135 597.624573,61.458435 
	C594.470215,61.433800 591.995544,62.852432 591.985107,66.424049 
	C591.929932,85.253929 591.847229,104.086220 592.183777,122.910339 
	C592.213135,124.551331 595.089050,127.250084 596.864746,127.446060 
	C598.719788,127.650803 600.946106,125.560295 602.788757,124.178047 
	C603.365845,123.745117 603.225525,122.355896 603.552246,120.703163 
	C604.381104,121.793823 604.682922,122.190910 605.477661,123.098869 
M484.901764,85.500183 
	C484.901886,97.151253 484.969086,108.802917 484.865234,120.453064 
	C484.829590,124.447800 485.799622,127.452133 490.350494,127.766876 
	C494.421478,128.048416 496.209015,125.810234 496.268188,120.476456 
	C496.341980,113.820450 496.033386,107.144051 496.456360,100.512581 
	C496.890167,93.711327 501.724579,89.676453 508.005585,90.107292 
	C513.297913,90.470322 515.329651,93.361610 515.426758,100.959724 
	C515.516052,107.948936 515.426025,114.940521 515.523132,121.929550 
	C515.576233,125.755165 517.725769,127.856285 521.503906,127.738777 
	C525.028503,127.629150 526.971924,125.540031 526.975769,121.941528 
	C526.984863,113.453476 527.273743,104.947929 526.833801,96.481445 
	C526.212769,84.531326 517.694336,78.567596 506.151428,81.852867 
	C502.831879,82.797661 499.822174,84.831154 496.264648,86.563011 
	C496.264648,80.010246 496.231934,73.700874 496.276672,67.392052 
	C496.304504,63.464104 494.274567,61.417919 490.511932,61.447395 
	C486.719452,61.477100 484.834259,63.620304 484.889771,67.523438 
	C484.970245,73.181320 484.904907,78.841270 484.901764,85.500183 
M422.176208,107.087906 
	C421.162842,105.877838 420.149506,104.667763 419.104919,103.420410 
	C423.779175,98.449425 428.404572,93.870628 432.549408,88.891739 
	C433.634247,87.588554 434.110718,84.395973 433.266357,83.240532 
	C432.335754,81.967087 429.318604,81.227020 427.652100,81.726959 
	C425.435852,82.391808 423.435272,84.269394 421.714264,85.996826 
	C416.977448,90.751266 412.434631,95.698997 407.063385,101.362869 
	C407.063385,89.496979 406.984436,78.876198 407.102356,68.257607 
	C407.149414,64.019707 405.566223,61.411373 401.141388,61.460648 
	C396.848053,61.508465 395.633240,64.298447 395.646210,68.179497 
	C395.704651,85.672859 395.709198,103.166672 395.642731,120.659973 
	C395.627350,124.704521 396.774872,127.734100 401.339539,127.735184 
	C405.834564,127.736252 407.232361,124.872284 407.095337,120.737061 
	C406.952484,116.426003 407.063446,112.106544 407.063446,106.712234 
	C413.078461,113.015160 418.090698,118.357117 423.220978,123.583176 
	C424.590668,124.978447 426.235107,126.847504 427.907440,127.021904 
	C430.215302,127.262550 432.669312,126.102005 435.060669,125.541641 
	C434.560211,123.480156 434.643494,120.956589 433.447510,119.445694 
	C430.148590,115.278168 426.314545,111.534241 422.176208,107.087906 
M286.591461,101.086655 
	C285.369263,114.428383 291.310516,124.242691 302.305939,127.045280 
	C319.780853,131.499405 332.907928,120.902672 332.231354,102.888199 
	C331.761200,90.370514 323.706665,81.931931 311.442047,81.107643 
	C298.051117,80.207649 288.742828,87.418930 286.591461,101.086655 
M538.220825,90.758339 
	C538.440369,98.904968 538.211975,107.095627 539.007446,115.185638 
	C539.778564,123.028030 544.822205,127.174644 552.644165,127.912415 
	C558.852234,128.497971 564.004028,126.384987 568.632507,121.052628 
	C568.832275,126.230446 571.284790,128.236877 575.405823,127.652985 
	C579.439514,127.081474 579.995728,123.966827 579.979736,120.527771 
	C579.929382,109.701332 580.123779,98.869942 579.819824,88.051811 
	C579.760925,85.954605 578.412903,83.063591 576.735107,82.007942 
	C572.766235,79.510780 568.541870,82.380798 568.374817,87.470818 
	C568.134583,94.791534 568.466492,102.136879 568.062744,109.444550 
	C567.734009,115.393074 563.020264,119.211281 557.315186,118.903229 
	C552.134521,118.623489 549.978760,115.845886 549.924500,109.155540 
	C549.864990,101.827194 550.095642,94.489136 549.759033,87.175598 
	C549.676025,85.371185 548.270020,82.761726 546.778870,82.110886 
	C544.982300,81.326744 541.536926,81.412224 540.448853,82.611893 
	C538.915283,84.302727 538.890686,87.362114 538.220825,90.758339 
M372.211853,98.877495 
	C372.238617,106.539268 372.199463,114.202103 372.321899,121.862350 
	C372.377289,125.329460 374.201080,127.585243 377.797546,127.741737 
	C381.295898,127.893967 383.762756,126.122742 383.809021,122.528267 
	C383.926910,113.374321 384.369385,104.153511 383.486145,95.075813 
	C382.396484,83.876961 373.998383,78.680565 363.083618,81.856941 
	C359.569489,82.879616 356.437195,85.214485 353.094421,86.967834 
	C353.019135,83.317955 350.849548,80.786102 346.365570,81.369186 
	C341.952545,81.943062 341.757416,85.382950 341.778320,88.923599 
	C341.843170,99.916763 341.820587,110.910477 341.817566,121.903976 
	C341.816498,125.840042 343.928558,127.818390 347.689148,127.738968 
	C351.209961,127.664604 353.178009,125.706482 353.143433,122.010429 
	C353.116974,119.179131 353.077148,116.344742 353.174225,113.516212 
	C353.356201,108.211693 353.123413,102.822891 354.015015,97.632660 
	C354.889160,92.543999 359.639465,89.731461 364.875916,90.117493 
	C369.720703,90.474648 371.918243,93.328423 372.211853,98.877495 
M270.480042,90.770538 
	C272.811066,90.759789 275.149689,90.863602 277.471130,90.709068 
	C280.325500,90.519096 282.692657,89.036240 281.829773,86.041565 
	C281.355591,84.395958 279.024780,82.563332 277.238434,82.180443 
	C274.269592,81.544090 271.065094,82.007111 268.430084,82.007111 
	C266.339844,76.838196 271.243256,68.646645 262.539734,68.200569 
	C252.391159,67.680428 257.886902,77.040855 255.629791,81.817665 
	C252.470673,82.651993 247.051407,80.277023 247.039902,86.338799 
	C247.028412,92.391830 252.519760,90.012650 256.156494,91.211395 
	C256.156494,97.570518 256.022980,104.034050 256.184967,110.490158 
	C256.497253,122.935318 264.159576,129.422943 276.441589,127.827461 
	C282.947449,126.982323 284.201660,125.032730 282.370850,117.962631 
	C280.854675,118.046539 279.236450,118.114609 277.621552,118.229195 
	C270.443329,118.738472 267.948669,116.459686 267.853424,109.142372 
	C267.788422,104.147758 267.739105,99.148033 267.916138,94.158882 
	C267.956757,93.015266 268.956390,91.905693 270.480042,90.770538 
M232.636780,101.778038 
	C229.868607,101.207939 227.109940,100.585487 224.329788,100.081451 
	C221.109009,99.497536 217.741348,98.944519 217.903763,94.650490 
	C218.072433,90.190491 221.757568,89.157967 225.028076,89.356613 
	C229.071228,89.602173 233.006332,91.330406 237.060532,91.828438 
	C238.806885,92.042969 240.735092,90.776985 242.580673,90.183594 
	C241.986343,88.351379 241.962494,85.756760 240.702591,84.814034 
	C233.900681,79.724396 220.202835,79.841728 213.169739,84.651085 
	C208.791534,87.644989 206.748642,91.825989 207.390427,97.072449 
	C208.056885,102.520523 211.592651,105.631592 216.660034,106.963585 
	C220.350021,107.933525 224.178146,108.368271 227.890625,109.265358 
	C230.788376,109.965569 234.682648,110.836021 233.590332,114.630127 
	C232.974380,116.769577 229.541397,119.409515 227.292770,119.491058 
	C222.781036,119.654686 218.142166,118.486961 213.690567,117.343880 
	C210.888550,116.624374 208.087540,114.848480 206.590744,118.700279 
	C205.241623,122.172104 207.783035,123.916695 210.533600,125.084381 
	C217.801865,128.169968 225.329636,128.888596 232.998398,126.938690 
	C240.052994,125.144936 244.043411,120.424133 244.190308,114.064842 
	C244.343277,107.442429 241.584396,104.327179 232.636780,101.778038 
M455.571655,97.825180 
	C453.583313,97.828705 451.594238,97.868851 449.606842,97.827431 
	C446.393890,97.760475 444.041534,99.440002 444.627960,102.445312 
	C444.969574,104.196274 447.639221,106.608452 449.427704,106.759911 
	C455.679321,107.289360 462.030243,107.284660 468.282227,106.757385 
	C470.016754,106.611099 472.557251,104.168930 472.936249,102.396912 
	C473.618164,99.208321 471.102905,97.813728 467.978363,97.825607 
	C464.167358,97.840096 460.356262,97.826576 455.571655,97.825180 
z"/>
<path fill="#020202" opacity="1.000000" stroke="none" 
	d="
M88.522568,27.411999 
	C111.886948,19.031256 135.125931,18.486282 158.290939,26.187103 
	C164.311554,28.188557 170.227051,31.422327 175.256638,35.301376 
	C186.309250,43.825672 186.431396,56.511772 175.071228,64.609520 
	C168.335403,69.410942 160.352783,73.248207 152.360352,75.353882 
	C128.871643,81.542168 105.552727,80.579605 83.318970,69.795311 
	C79.367920,67.878883 75.619720,65.051224 72.560120,61.887753 
	C65.115280,54.190163 65.093994,44.904446 72.934479,37.670059 
	C77.353249,33.592873 83.059273,30.910788 88.522568,27.411999 
z"/>
<path fill="#030303" opacity="1.000000" stroke="none" 
	d="
M113.386253,97.823792 
	C141.978470,99.220482 150.626663,97.462921 183.109985,83.746094 
	C183.109985,89.572578 183.724579,95.419830 182.960297,101.080933 
	C181.915741,108.818344 176.040970,113.292175 169.762222,117.018028 
	C160.459549,122.538300 150.217667,125.352287 139.575531,126.493141 
	C120.814087,128.504395 102.400223,127.415642 84.939438,119.248810 
	C72.857056,113.597580 65.259727,105.238152 67.079300,90.841209 
	C67.368851,88.550163 67.119888,86.191055 67.119888,83.109268 
	C81.448761,91.843346 96.778603,96.151306 113.386253,97.823792 
z"/>
<path fill="#030303" opacity="1.000000" stroke="none" 
	d="
M181.660614,132.427429 
	C182.291916,132.201630 182.839676,132.111099 182.878387,132.213303 
	C186.591354,142.020416 182.705948,155.956375 174.307739,162.327835 
	C164.921143,169.449158 153.983688,172.750641 142.528748,174.452820 
	C123.952583,177.213196 105.689346,176.167938 88.120766,168.983093 
	C84.463219,167.487274 80.953110,165.486160 77.646980,163.305618 
	C70.496605,158.589600 66.481636,152.113968 67.079353,143.189438 
	C67.321205,139.578384 67.119255,135.937637 67.119255,132.308380 
	C105.320915,151.014282 143.297318,152.869583 181.660614,132.427429 
z"/>
<path fill="#040404" opacity="1.000000" stroke="none" 
	d="
M605.231201,122.843430 
	C604.682922,122.190910 604.381104,121.793823 603.552246,120.703163 
	C603.225525,122.355896 603.365845,123.745117 602.788757,124.178047 
	C600.946106,125.560295 598.719788,127.650803 596.864746,127.446060 
	C595.089050,127.250084 592.213135,124.551331 592.183777,122.910339 
	C591.847229,104.086220 591.929932,85.253929 591.985107,66.424049 
	C591.995544,62.852432 594.470215,61.433800 597.624573,61.458435 
	C600.787537,61.483135 603.145081,62.953209 603.179626,66.529366 
	C603.244873,73.286644 603.198486,80.045006 603.198486,87.874634 
	C609.468628,81.709747 615.939575,79.733513 623.441772,81.896339 
	C623.601318,81.942337 623.772339,81.949692 623.930847,81.998268 
	C634.957703,85.377853 640.533508,99.605507 636.291016,113.533112 
	C632.878967,124.734528 622.926208,130.443253 612.299133,127.017632 
	C609.857910,126.230682 607.742859,124.431961 605.231201,122.843430 
M611.280334,90.225807 
	C601.480469,92.278992 601.078064,110.692139 607.016663,116.243530 
	C610.632812,119.623856 616.709595,120.157104 620.827148,117.284637 
	C625.567566,113.977699 627.472778,104.961296 625.004272,97.516685 
	C623.119690,91.833389 619.487671,89.739738 611.280334,90.225807 
z"/>
<path fill="#050505" opacity="1.000000" stroke="none" 
	d="
M484.901764,85.000259 
	C484.904907,78.841270 484.970245,73.181320 484.889771,67.523438 
	C484.834259,63.620304 486.719452,61.477100 490.511932,61.447395 
	C494.274567,61.417919 496.304504,63.464104 496.276672,67.392052 
	C496.231934,73.700874 496.264648,80.010246 496.264648,86.563011 
	C499.822174,84.831154 502.831879,82.797661 506.151428,81.852867 
	C517.694336,78.567596 526.212769,84.531326 526.833801,96.481445 
	C527.273743,104.947929 526.984863,113.453476 526.975769,121.941528 
	C526.971924,125.540031 525.028503,127.629150 521.503906,127.738777 
	C517.725769,127.856285 515.576233,125.755165 515.523132,121.929550 
	C515.426025,114.940521 515.516052,107.948936 515.426758,100.959724 
	C515.329651,93.361610 513.297913,90.470322 508.005585,90.107292 
	C501.724579,89.676453 496.890167,93.711327 496.456360,100.512581 
	C496.033386,107.144051 496.341980,113.820450 496.268188,120.476456 
	C496.209015,125.810234 494.421478,128.048416 490.350494,127.766876 
	C485.799622,127.452133 484.829590,124.447800 484.865234,120.453064 
	C484.969086,108.802917 484.901886,97.151253 484.901764,85.000259 
z"/>
<path fill="#040404" opacity="1.000000" stroke="none" 
	d="
M422.434204,107.355347 
	C426.314545,111.534241 430.148590,115.278168 433.447510,119.445694 
	C434.643494,120.956589 434.560211,123.480156 435.060669,125.541634 
	C432.669312,126.102005 430.215302,127.262550 427.907440,127.021904 
	C426.235107,126.847504 424.590668,124.978447 423.220978,123.583176 
	C418.090698,118.357117 413.078461,113.015160 407.063446,106.712234 
	C407.063446,112.106544 406.952484,116.426003 407.095337,120.737061 
	C407.232361,124.872284 405.834564,127.736252 401.339539,127.735184 
	C396.774872,127.734100 395.627350,124.704521 395.642731,120.659973 
	C395.709198,103.166672 395.704651,85.672859 395.646210,68.179497 
	C395.633240,64.298447 396.848053,61.508465 401.141388,61.460648 
	C405.566223,61.411373 407.149414,64.019707 407.102356,68.257607 
	C406.984436,78.876198 407.063385,89.496979 407.063385,101.362869 
	C412.434631,95.698997 416.977448,90.751266 421.714264,85.996826 
	C423.435272,84.269394 425.435852,82.391808 427.652100,81.726959 
	C429.318604,81.227020 432.335754,81.967087 433.266357,83.240532 
	C434.110718,84.395973 433.634247,87.588554 432.549408,88.891739 
	C428.404572,93.870628 423.779175,98.449425 419.104919,103.420410 
	C420.149506,104.667763 421.162842,105.877838 422.434204,107.355347 
z"/>
<path fill="#060606" opacity="1.000000" stroke="none" 
	d="
M286.660828,100.669495 
	C288.742828,87.418930 298.051117,80.207649 311.442047,81.107643 
	C323.706665,81.931931 331.761200,90.370514 332.231354,102.888199 
	C332.907928,120.902672 319.780853,131.499405 302.305939,127.045280 
	C291.310516,124.242691 285.369263,114.428383 286.660828,100.669495 
M320.835938,104.490303 
	C320.273651,95.442047 317.356750,90.944267 311.455750,90.026283 
	C304.499786,88.944191 299.526611,92.813705 298.212952,100.330147 
	C296.542297,109.889168 300.309906,117.793411 307.103149,118.963791 
	C307.592163,119.048035 308.095490,119.057663 308.593140,119.082077 
	C315.968842,119.443947 319.644073,115.310997 320.835938,104.490303 
z"/>
<path fill="#090909" opacity="1.000000" stroke="none" 
	d="
M538.220825,90.297348 
	C538.890686,87.362114 538.915283,84.302727 540.448853,82.611893 
	C541.536926,81.412224 544.982300,81.326744 546.778870,82.110886 
	C548.270020,82.761726 549.676025,85.371185 549.759033,87.175598 
	C550.095642,94.489136 549.864990,101.827194 549.924500,109.155540 
	C549.978760,115.845886 552.134521,118.623489 557.315186,118.903229 
	C563.020264,119.211281 567.734009,115.393074 568.062744,109.444550 
	C568.466492,102.136879 568.134583,94.791534 568.374817,87.470818 
	C568.541870,82.380798 572.766235,79.510780 576.735107,82.007942 
	C578.412903,83.063591 579.760925,85.954605 579.819824,88.051811 
	C580.123779,98.869942 579.929382,109.701332 579.979736,120.527771 
	C579.995728,123.966827 579.439514,127.081474 575.405823,127.652985 
	C571.284790,128.236877 568.832275,126.230446 568.632507,121.052628 
	C564.004028,126.384987 558.852234,128.497971 552.644165,127.912415 
	C544.822205,127.174644 539.778564,123.028030 539.007446,115.185638 
	C538.211975,107.095627 538.440369,98.904968 538.220825,90.297348 
z"/>
<path fill="#060606" opacity="1.000000" stroke="none" 
	d="
M372.181152,98.427742 
	C371.918243,93.328423 369.720703,90.474648 364.875916,90.117493 
	C359.639465,89.731461 354.889160,92.543999 354.015015,97.632660 
	C353.123413,102.822891 353.356201,108.211693 353.174225,113.516212 
	C353.077148,116.344742 353.116974,119.179131 353.143433,122.010429 
	C353.178009,125.706482 351.209961,127.664604 347.689148,127.738968 
	C343.928558,127.818390 341.816498,125.840042 341.817566,121.903976 
	C341.820587,110.910477 341.843170,99.916763 341.778320,88.923599 
	C341.757416,85.382950 341.952545,81.943062 346.365570,81.369186 
	C350.849548,80.786102 353.019135,83.317955 353.094421,86.967834 
	C356.437195,85.214485 359.569489,82.879616 363.083618,81.856941 
	C373.998383,78.680565 382.396484,83.876961 383.486145,95.075813 
	C384.369385,104.153511 383.926910,113.374321 383.809021,122.528267 
	C383.762756,126.122742 381.295898,127.893967 377.797546,127.741737 
	C374.201080,127.585243 372.377289,125.329460 372.321899,121.862350 
	C372.199463,114.202103 372.238617,106.539268 372.181152,98.427742 
z"/>
<path fill="#090909" opacity="1.000000" stroke="none" 
	d="
M269.997375,90.775497 
	C268.956390,91.905693 267.956757,93.015266 267.916138,94.158882 
	C267.739105,99.148033 267.788422,104.147758 267.853424,109.142372 
	C267.948669,116.459686 270.443329,118.738472 277.621552,118.229195 
	C279.236450,118.114609 280.854675,118.046539 282.370850,117.962631 
	C284.201660,125.032730 282.947449,126.982323 276.441589,127.827461 
	C264.159576,129.422943 256.497253,122.935318 256.184967,110.490158 
	C256.022980,104.034050 256.156494,97.570518 256.156494,91.211395 
	C252.519760,90.012650 247.028412,92.391830 247.039902,86.338799 
	C247.051407,80.277023 252.470673,82.651993 255.629791,81.817665 
	C257.886902,77.040855 252.391159,67.680428 262.539734,68.200569 
	C271.243256,68.646645 266.339844,76.838196 268.430084,82.007111 
	C271.065094,82.007111 274.269592,81.544090 277.238434,82.180443 
	C279.024780,82.563332 281.355591,84.395958 281.829773,86.041565 
	C282.692657,89.036240 280.325500,90.519096 277.471130,90.709068 
	C275.149689,90.863602 272.811066,90.759789 269.997375,90.775497 
z"/>
<path fill="#080808" opacity="1.000000" stroke="none" 
	d="
M233.034698,101.847839 
	C241.584396,104.327179 244.343277,107.442429 244.190308,114.064842 
	C244.043411,120.424133 240.052994,125.144936 232.998398,126.938690 
	C225.329636,128.888596 217.801865,128.169968 210.533600,125.084381 
	C207.783035,123.916695 205.241623,122.172104 206.590744,118.700279 
	C208.087540,114.848480 210.888550,116.624374 213.690567,117.343880 
	C218.142166,118.486961 222.781036,119.654686 227.292770,119.491058 
	C229.541397,119.409515 232.974380,116.769577 233.590332,114.630127 
	C234.682648,110.836021 230.788376,109.965569 227.890625,109.265358 
	C224.178146,108.368271 220.350021,107.933525 216.660034,106.963585 
	C211.592651,105.631592 208.056885,102.520523 207.390427,97.072449 
	C206.748642,91.825989 208.791534,87.644989 213.169739,84.651085 
	C220.202835,79.841728 233.900681,79.724396 240.702591,84.814034 
	C241.962494,85.756760 241.986343,88.351379 242.580688,90.183594 
	C240.735092,90.776985 238.806885,92.042969 237.060532,91.828438 
	C233.006332,91.330406 229.071228,89.602173 225.028076,89.356613 
	C221.757568,89.157967 218.072433,90.190491 217.903763,94.650490 
	C217.741348,98.944519 221.109009,99.497536 224.329788,100.081451 
	C227.109940,100.585487 229.868607,101.207939 233.034698,101.847839 
z"/>
<path fill="#050505" opacity="1.000000" stroke="none" 
	d="
M456.058411,97.825180 
	C460.356262,97.826576 464.167358,97.840096 467.978363,97.825607 
	C471.102905,97.813728 473.618164,99.208321 472.936249,102.396912 
	C472.557251,104.168930 470.016754,106.611099 468.282227,106.757385 
	C462.030243,107.284660 455.679321,107.289360 449.427704,106.759911 
	C447.639221,106.608452 444.969574,104.196274 444.627960,102.445312 
	C444.041534,99.440002 446.393890,97.760475 449.606842,97.827431 
	C451.594238,97.868851 453.583313,97.828705 456.058411,97.825180 
z"/>
<path fill="#FAFAFA" opacity="1.000000" stroke="none" 
	d="
M611.681030,90.146843 
	C619.487671,89.739738 623.119690,91.833389 625.004272,97.516685 
	C627.472778,104.961296 625.567566,113.977699 620.827148,117.284637 
	C616.709595,120.157104 610.632812,119.623856 607.016663,116.243530 
	C601.078064,110.692139 601.480469,92.278992 611.681030,90.146843 
z"/>
<path fill="#FAFAFA" opacity="1.000000" stroke="none" 
	d="
M320.829041,104.912285 
	C319.644073,115.310997 315.968842,119.443947 308.593140,119.082077 
	C308.095490,119.057663 307.592163,119.048035 307.103149,118.963791 
	C300.309906,117.793411 296.542297,109.889168 298.212952,100.330147 
	C299.526611,92.813705 304.499786,88.944191 311.455750,90.026283 
	C317.356750,90.944267 320.273651,95.442047 320.829041,104.912285 
z"/>
</svg>