<?xml version="1.0" encoding="UTF-8"?>
<svg id="Layer_1" data-name="Layer 1" xmlns="http://www.w3.org/2000/svg" viewBox="0 0 570.9 155.11">
  <defs>
    <style>
      .cls-1 {
        fill: #080808;
      }

      .cls-2 {
        fill: #020202;
      }

      .cls-3 {
        fill: #090909;
      }

      .cls-4 {
        fill: #050505;
      }

      .cls-5 {
        fill: #060606;
      }

      .cls-6 {
        fill: #030303;
      }

      .cls-7 {
        fill: #040404;
      }
    </style>
  </defs>
  <path class="cls-2" d="M21.71,6.66C45.08-1.72,68.31-2.26,91.48,5.44c6.02,2,11.94,5.24,16.97,9.11,11.05,8.52,11.17,21.21-.19,29.31-6.74,4.8-14.72,8.64-22.71,10.74-23.49,6.19-46.81,5.23-69.04-5.56-3.95-1.92-7.7-4.74-10.76-7.91-7.44-7.7-7.47-16.98.37-24.22,4.42-4.08,10.12-6.76,15.59-10.26Z"/>
  <path class="cls-6" d="M46.58,77.07c28.59,1.4,37.24-.36,69.72-14.08,0,5.83.61,11.67-.15,17.33-1.04,7.74-6.92,12.21-13.2,15.94-9.3,5.52-19.54,8.33-30.19,9.48-18.76,2.01-37.18.92-54.64-7.24C6.05,92.85-1.55,84.49.27,70.09c.29-2.29.04-4.65.04-7.73,14.33,8.73,29.66,13.04,46.27,14.71Z"/>
  <path class="cls-6" d="M114.85,111.68c.63-.23,1.18-.32,1.22-.21,3.71,9.81-.17,23.74-8.57,30.11-9.39,7.12-20.32,10.42-31.78,12.12-18.58,2.76-36.84,1.72-54.41-5.47-3.66-1.5-7.17-3.5-10.47-5.68-7.15-4.72-11.17-11.19-10.57-20.12.24-3.61.04-7.25.04-10.88,38.2,18.71,76.18,20.56,114.54.12Z"/>
  <path class="cls-7" d="M538.42,102.09c-.55-.65-.85-1.05-1.68-2.14-.33,1.65-.19,3.04-.76,3.47-1.84,1.38-4.07,3.47-5.92,3.27-1.78-.2-4.65-2.89-4.68-4.54-.34-18.82-.25-37.66-.2-56.49.01-3.57,2.49-4.99,5.64-4.97,3.16.02,5.52,1.49,5.56,5.07.07,6.76.02,13.52.02,21.35,6.27-6.16,12.74-8.14,20.24-5.98.16.05.33.05.49.1,11.03,3.38,16.6,17.61,12.36,31.53-3.41,11.2-13.36,16.91-23.99,13.48-2.44-.79-4.56-2.59-7.07-4.17M544.47,69.48c-9.8,2.05-10.2,20.47-4.26,26.02,3.62,3.38,9.69,3.91,13.81,1.04,4.74-3.31,6.65-12.32,4.18-19.77-1.88-5.68-5.52-7.78-13.72-7.29Z"/>
  <path class="cls-4" d="M418.09,64.25c0-6.16.07-11.82-.01-17.48-.06-3.9,1.83-6.05,5.62-6.08,3.76-.03,5.79,2.02,5.76,5.94-.04,6.31-.01,12.62-.01,19.17,3.56-1.73,6.57-3.77,9.89-4.71,11.54-3.29,20.06,2.68,20.68,14.63.44,8.47.15,16.97.14,25.46,0,3.6-1.95,5.69-5.47,5.8-3.78.12-5.93-1.98-5.98-5.81-.1-6.99,0-13.98-.1-20.97-.1-7.6-2.13-10.49-7.42-10.85-6.28-.43-11.12,3.6-11.55,10.41-.42,6.63-.11,13.31-.19,19.96-.06,5.33-1.85,7.57-5.92,7.29-4.55-.31-5.52-3.32-5.49-7.31.1-11.65.04-23.3.04-35.45Z"/>
  <path class="cls-7" d="M355.62,86.6c3.88,4.18,7.71,7.92,11.01,12.09,1.2,1.51,1.11,4.03,1.61,6.1-2.39.56-4.85,1.72-7.15,1.48-1.67-.17-3.32-2.04-4.69-3.44-5.13-5.23-10.14-10.57-16.16-16.87,0,5.39-.11,9.71.03,14.02.14,4.14-1.26,7-5.76,7-4.56,0-5.71-3.03-5.7-7.08.07-17.49.06-34.99,0-52.48-.01-3.88,1.2-6.67,5.5-6.72,4.42-.05,6.01,2.56,5.96,6.8-.12,10.62-.04,21.24-.04,33.11,5.37-5.66,9.91-10.61,14.65-15.37,1.72-1.73,3.72-3.61,5.94-4.27,1.67-.5,4.68.24,5.61,1.51.84,1.16.37,4.35-.72,5.65-4.14,4.98-8.77,9.56-13.44,14.53,1.04,1.25,2.06,2.46,3.33,3.93Z"/>
  <path class="cls-5" d="M219.85,79.92c2.08-13.25,11.39-20.46,24.78-19.56,12.26.82,20.32,9.26,20.79,21.78.68,18.01-12.45,28.61-29.93,24.16-11-2.8-16.94-12.62-15.65-26.38M254.02,83.74c-.56-9.05-3.48-13.55-9.38-14.46-6.96-1.08-11.93,2.79-13.24,10.3-1.67,9.56,2.1,17.46,8.89,18.63.49.08.99.09,1.49.12,7.38.36,11.05-3.77,12.24-14.59Z"/>
  <path class="cls-3" d="M471.41,69.55c.67-2.94.69-5.99,2.23-7.69,1.09-1.2,4.53-1.29,6.33-.5,1.49.65,2.9,3.26,2.98,5.06.34,7.31.11,14.65.17,21.98.05,6.69,2.21,9.47,7.39,9.75,5.71.31,10.42-3.51,10.75-9.46.4-7.31.07-14.65.31-21.97.17-5.09,4.39-7.96,8.36-5.46,1.68,1.06,3.03,3.95,3.08,6.04.3,10.82.11,21.65.16,32.48.02,3.44-.54,6.55-4.57,7.13-4.12.58-6.57-1.42-6.77-6.6-4.63,5.33-9.78,7.45-15.99,6.86-7.82-.74-12.87-4.88-13.64-12.73-.8-8.09-.57-16.28-.79-24.89Z"/>
  <path class="cls-5" d="M305.37,77.68c-.26-5.1-2.46-7.95-7.31-8.31-5.24-.39-9.99,2.43-10.86,7.52-.89,5.19-.66,10.58-.84,15.88-.1,2.83-.06,5.66-.03,8.49.03,3.7-1.93,5.65-5.45,5.73-3.76.08-5.87-1.9-5.87-5.83,0-10.99.03-21.99-.04-32.98-.02-3.54.17-6.98,4.59-7.55,4.48-.58,6.65,1.95,6.73,5.6,3.34-1.75,6.48-4.09,9.99-5.11,10.91-3.18,19.31,2.02,20.4,13.22.88,9.08.44,18.3.32,27.45-.05,3.59-2.51,5.37-6.01,5.21-3.6-.16-5.42-2.41-5.48-5.88-.12-7.66-.08-15.32-.14-23.43Z"/>
  <path class="cls-3" d="M203.19,70.02c-1.04,1.13-2.04,2.24-2.08,3.38-.18,4.99-.13,9.99-.06,14.98.1,7.32,2.59,9.6,9.77,9.09,1.61-.11,3.23-.18,4.75-.27,1.83,7.07.58,9.02-5.93,9.86-12.28,1.6-19.94-4.89-20.26-17.34-.16-6.46-.03-12.92-.03-19.28-3.64-1.2-9.13,1.18-9.12-4.87.01-6.06,5.43-3.69,8.59-4.52,2.26-4.78-3.24-14.14,6.91-13.62,8.7.45,3.8,8.64,5.89,13.81,2.64,0,5.84-.46,8.81.17,1.79.38,4.12,2.22,4.59,3.86.86,2.99-1.5,4.48-4.36,4.67-2.32.15-4.66.05-7.47.07Z"/>
  <path class="cls-1" d="M166.22,81.1c8.55,2.48,11.31,5.59,11.16,12.22-.15,6.36-4.14,11.08-11.19,12.87-7.67,1.95-15.2,1.23-22.46-1.85-2.75-1.17-5.29-2.91-3.94-6.38,1.5-3.85,4.3-2.08,7.1-1.36,4.45,1.14,9.09,2.31,13.6,2.15,2.25-.08,5.68-2.72,6.3-4.86,1.09-3.79-2.8-4.66-5.7-5.36-3.71-.9-7.54-1.33-11.23-2.3-5.07-1.33-8.6-4.44-9.27-9.89-.64-5.25,1.4-9.43,5.78-12.42,7.03-4.81,20.73-4.93,27.53.16,1.26.94,1.28,3.54,1.88,5.37-1.85.59-3.77,1.86-5.52,1.64-4.05-.5-7.99-2.23-12.03-2.47-3.27-.2-6.96.83-7.12,5.29-.16,4.29,3.21,4.85,6.43,5.43,2.78.5,5.54,1.13,8.7,1.77Z"/>
  <path class="cls-4" d="M389.25,77.07c4.3,0,8.11.01,11.92,0,3.12-.01,5.64,1.38,4.96,4.57-.38,1.77-2.92,4.21-4.65,4.36-6.25.53-12.6.53-18.85,0-1.79-.15-4.46-2.56-4.8-4.31-.59-3.01,1.77-4.68,4.98-4.62,1.99.04,3.98,0,6.45,0Z"/>
</svg>